HIERARCHY
ROOT Pelvis
{
	OFFSET 0.000000 0.000000 0.000000
	CHANNELS 6 Xposition Yposition Zposition Xrotation Yrotation Zrotation
	JOINT LeftUpLeg_virtual
	{
		OFFSET 0.000000 0.000000 0.000000
		CHANNELS 3 Xrotation Yrotation Zrotation
		JOINT LeftUpLeg
		{
			OFFSET 18.735201 -5.666702 -4.541200
			CHANNELS 3 Xrotation Yrotation Zrotation
			JOINT LeftLeg
			{
				OFFSET -0.021200 -31.938179 0.493100
				CHANNELS 3 Xrotation Yrotation Zrotation
				JOINT LeftFoot
				{
					OFFSET 0.021200 -31.938179 -4.336299
					CHANNELS 3 Xrotation Yrotation Zrotation
					JOINT LeftToeBase
					{
						OFFSET 0.943001 -26.722000 15.023500
						CHANNELS 3 Xrotation Yrotation Zrotation
						End Site
						{
							OFFSET 0 0 0
						}
					}
				}
			}
		}
	}
	JOINT RightUpLeg_virtual
	{
		OFFSET 0.000000 0.000000 0.000000
		CHANNELS 3 Xrotation Yrotation Zrotation
		JOINT RightUpLeg
		{
			OFFSET -18.735201 -5.666702 -4.541200
			CHANNELS 3 Xrotation Yrotation Zrotation
			JOINT RightLeg
			{
				OFFSET 0.018946 -31.938133 0.493100
				CHANNELS 3 Xrotation Yrotation Zrotation
				JOINT RightFoot
				{
					OFFSET -0.018946 -31.938126 -4.336299
					CHANNELS 3 Xrotation Yrotation Zrotation
					JOINT RightToeBase
					{
						OFFSET -0.943001 -26.722004 15.023500
						CHANNELS 3 Xrotation Yrotation Zrotation
						End Site
						{
							OFFSET 0 0 0
						}
					}
				}
			}
		}
	}
	JOINT Hips_virtual
	{
		OFFSET 0.000000 0.000000 0.000000
		CHANNELS 3 Xrotation Yrotation Zrotation
		JOINT Hips
		{
			OFFSET -0.000000 -0.000000 -0.000000
			CHANNELS 3 Xrotation Yrotation Zrotation
			JOINT Spine
			{
				OFFSET 0.000000 10.199997 -0.299500
				CHANNELS 3 Xrotation Yrotation Zrotation
				JOINT Spine1
				{
					OFFSET 0.000000 11.900002 -1.516600
					CHANNELS 3 Xrotation Yrotation Zrotation
					JOINT Spine2
					{
						OFFSET 0.000000 13.600006 -2.842500
						CHANNELS 3 Xrotation Yrotation Zrotation
						JOINT Neck_virtual
						{
							OFFSET 0.000000 0.000000 0.000000
							CHANNELS 3 Xrotation Yrotation Zrotation
							JOINT Neck
							{
								OFFSET 0.000000 9.624100 -2.890100
								CHANNELS 3 Xrotation Yrotation Zrotation
								JOINT Head
								{
									OFFSET 0.000000 14.068802 -1.351900
									CHANNELS 3 Xrotation Yrotation Zrotation
									End Site
									{
										OFFSET 0 0 0
									}
								}
							}
						}
						JOINT LeftShoulder_virtual
						{
							OFFSET 0.000000 0.000000 0.000000
							CHANNELS 3 Xrotation Yrotation Zrotation
							JOINT LeftShoulder
							{
								OFFSET 15.263000 10.923401 -0.547700
								CHANNELS 3 Xrotation Yrotation Zrotation
								JOINT LeftArm
								{
									OFFSET 25.438599 -2.830597 -13.032500
									CHANNELS 3 Xrotation Yrotation Zrotation
									JOINT LeftForeArm
									{
										OFFSET 29.960503 0.000000 0.000000
										CHANNELS 3 Xrotation Yrotation Zrotation
										JOINT LeftHand
										{
											OFFSET 27.849251 0.000000 0.000000
											CHANNELS 3 Xrotation Yrotation Zrotation
											End Site
											{
												OFFSET 0 0 0
											}
										}
									}
								}
							}
						}
						JOINT RightShoulder_virtual
						{
							OFFSET 0.000000 0.000000 0.000000
							CHANNELS 3 Xrotation Yrotation Zrotation
							JOINT RightShoulder
							{
								OFFSET -15.263000 10.923401 -0.547700
								CHANNELS 3 Xrotation Yrotation Zrotation
								JOINT RightArm
								{
									OFFSET -25.438599 -2.830597 -13.032500
									CHANNELS 3 Xrotation Yrotation Zrotation
									JOINT RightForeArm
									{
										OFFSET -29.960503 0.000000 0.000000
										CHANNELS 3 Xrotation Yrotation Zrotation
										JOINT RightHand
										{
											OFFSET -27.849251 0.000000 0.000000
											CHANNELS 3 Xrotation Yrotation Zrotation
											End Site
											{
												OFFSET 0 0 0
											}
										}
									}
								}
							}
						}
					}
				}
			}
		}
	}
}
MOTION
Frames: 6
Frame Time: 0.03333333
0.698585 93.814438 3.718929 0.000000 0.000000 0.000000 -4.509211 -6.771480 0.160409 -4.509091 21.437416 2.938724 15.676094 6.074779 0.287765 -8.239386 3.304470 1.506228 0.000000 0.000000 0.000000 -3.774600 -5.494638 -0.289806 -10.747949 -8.389807 -17.710641 7.835272 -15.121790 2.633483 8.473538 1.129818 13.286102 0.000000 0.000000 0.000000 -4.240391 -6.998254 0.204093 -0.141713 0.636501 -1.328042 9.935348 2.985391 -2.098533 -3.999936 -3.656100 -0.528854 0.000000 0.000000 0.000000 -4.702328 3.274858 -2.287164 4.682060 0.090900 -0.116964 0.000000 0.000000 0.000000 -6.467091 3.239171 -2.497169 5.020716 -19.767554 2.189475 -3.693638 0.146009 -86.710549 5.385062 -10.867514 -2.034474 0.000000 0.000000 0.000000 -5.773286 3.816667 -2.059396 5.992875 6.573987 9.219198 19.923191 2.091542 80.103236 -1.623577 29.874472 0.811420 0.000000 0.000000 0.000000 
0.606992 93.737251 3.638477 0.000000 0.000000 0.000000 -4.590013 -6.903580 0.148520 -4.584356 21.277260 2.907239 15.641302 5.991033 0.369896 -8.432601 3.381906 1.473837 0.000000 0.000000 0.000000 -3.818961 -5.744207 -0.244515 -10.780096 -8.407083 -17.590123 8.237866 -15.173168 2.669197 7.948191 0.829000 13.392036 0.000000 0.000000 0.000000 -4.246662 -7.226516 0.192827 -0.105527 0.592819 -1.363155 9.977665 2.908263 -2.162381 -3.929017 -3.657130 -0.544442 0.000000 0.000000 0.000000 -4.789127 3.275856 -2.299427 4.681020 0.092437 -0.104779 0.000000 0.000000 0.000000 -6.395595 3.224000 -2.487165 5.017109 -19.848608 2.244334 -3.788044 0.062905 -86.377789 5.448962 -10.919983 -1.980621 0.000000 0.000000 0.000000 -5.611070 3.808023 -2.120343 5.934104 6.583329 9.221403 19.902797 2.259783 79.918882 -1.562666 30.057593 0.972118 0.000000 0.000000 0.000000 
0.518669 93.594841 3.401932 0.000000 0.000000 0.000000 -4.676294 -7.124170 0.169135 -5.102042 21.218715 3.076766 16.198864 5.674908 0.389203 -8.341711 3.149139 1.273087 0.000000 0.000000 0.000000 -3.847590 -6.141120 -0.193046 -11.055715 -8.441083 -17.435899 8.883752 -15.190045 2.667407 7.135549 0.271440 13.185608 0.000000 0.000000 0.000000 -4.222394 -7.525537 0.199145 -0.099322 0.476459 -1.385808 10.015999 2.815807 -2.238516 -3.900276 -3.673336 -0.582692 0.000000 0.000000 0.000000 -4.900776 3.237800 -2.332843 4.647003 0.088142 -0.077212 0.000000 0.000000 0.000000 -6.339291 3.178654 -2.503571 4.963201 -19.877423 2.257574 -3.778361 0.112322 -85.662880 5.551392 -11.129805 -1.953325 0.000000 0.000000 0.000000 -5.495965 3.758794 -2.198542 5.813301 6.612760 9.458180 19.630199 2.780008 79.216677 -1.413870 29.949208 1.236590 0.000000 0.000000 0.000000 
0.484293 93.460434 3.083801 0.000000 0.000000 0.000000 -4.729069 -7.373620 0.238957 -6.017655 21.279415 3.437276 17.329016 5.211419 0.336064 -7.933695 2.700932 1.040171 0.000000 0.000000 0.000000 -3.839996 -6.523591 -0.141791 -11.527006 -8.502750 -17.303328 9.591595 -15.123316 2.597646 6.525776 -0.361591 12.802235 0.000000 0.000000 0.000000 -4.166579 -7.772612 0.236071 -0.112499 0.500177 -1.382662 10.037146 2.717754 -2.318823 -3.903596 -3.694340 -0.637560 0.000000 0.000000 0.000000 -5.009624 3.171650 -2.385212 4.589237 0.079169 -0.039529 0.000000 0.000000 0.000000 -6.311791 3.112610 -2.542390 4.860321 -19.833643 2.210988 -3.648698 0.319438 -84.725485 5.670420 -11.623005 -1.959556 0.000000 0.000000 0.000000 -5.433980 3.681309 -2.282600 5.641972 6.636859 9.888939 19.264199 3.439224 78.081807 -1.139113 29.712706 1.558806 0.000000 0.000000 0.000000 
0.515095 93.369797 2.711973 0.000000 0.000000 0.000000 -4.721539 -7.558158 0.351943 -7.098625 21.428059 3.874638 18.689769 4.667018 0.258046 -7.465425 2.113855 0.910074 0.000000 0.000000 0.000000 -3.786529 -6.795155 -0.092846 -12.047458 -8.577447 -17.195607 10.052431 -14.863678 2.468321 6.623127 -0.856012 12.416391 0.000000 0.000000 0.000000 -4.111975 -7.900363 0.292410 -0.103255 0.635760 -1.454054 10.046856 2.630836 -2.411535 -3.919961 -3.709176 -0.702445 0.000000 0.000000 0.000000 -5.097643 3.092965 -2.449291 4.506904 0.066061 0.003998 0.000000 0.000000 0.000000 -6.319700 3.038907 -2.591187 4.727701 -19.749446 2.101695 -3.401048 0.624921 -83.743768 5.767739 -12.455991 -2.001234 0.000000 0.000000 0.000000 -5.429430 3.592247 -2.363376 5.435611 6.614921 10.438286 18.937816 4.030614 76.755897 -0.708948 29.450044 1.887404 0.000000 0.000000 0.000000 
0.626062 93.355698 2.355423 0.000000 0.000000 0.000000 -4.660117 -7.686676 0.495778 -7.991172 21.641973 4.205285 19.788931 4.076705 0.198371 -7.021350 1.487587 0.905650 0.000000 0.000000 0.000000 -3.713858 -6.929372 -0.065679 -12.481787 -8.578538 -17.095543 10.169671 -14.321345 2.283935 7.564063 -1.052401 12.140976 0.000000 0.000000 0.000000 -4.089465 -7.928799 0.357052 -0.040124 0.712688 -1.492103 10.057025 2.558444 -2.537475 -3.940607 -3.705318 -0.764266 0.000000 0.000000 0.000000 -5.161793 3.019605 -2.506235 4.393329 0.050690 0.050934 0.000000 0.000000 0.000000 -6.346624 2.968413 -2.637741 4.579406 -19.653463 1.932341 -3.027295 0.892108 -82.872229 5.794913 -13.575418 -2.103566 0.000000 0.000000 0.000000 -5.468340 3.505570 -2.427087 5.213301 6.502751 11.015473 18.691919 4.351793 75.504613 -0.107701 29.118100 2.146734 0.000000 0.000000 0.000000 
